<?xml version="1.0" standalone="no"?>
<!DOCTYPE svg PUBLIC "-//W3C//DTD SVG 20010904//EN"
 "http://www.w3.org/TR/2001/REC-SVG-20010904/DTD/svg10.dtd">
<svg version="1.0" xmlns="http://www.w3.org/2000/svg"
 width="1024.000000pt" height="1024.000000pt" viewBox="0 0 1024.000000 1024.000000"
 preserveAspectRatio="xMidYMid meet">
<metadata>
Created by potrace 1.14, written by Peter Selinger 2001-2017
</metadata>
<g transform="translate(0.000000,1024.000000) scale(0.100000,-0.100000)"
fill="#000000" stroke="none">
<path d="M3275 9425 c-44 -9 -108 -29 -143 -45 -60 -28 -64 -33 -93 -96 -17
-36 -35 -90 -41 -120 -11 -53 -14 -57 -77 -98 -36 -24 -83 -59 -103 -77 -81
-75 -663 -791 -929 -1144 -817 -1084 -1337 -2064 -1574 -2970 -72 -273 -80
-340 -80 -645 1 -267 2 -278 28 -375 32 -119 110 -284 171 -364 95 -123 225
-218 361 -263 61 -20 89 -23 215 -22 128 1 158 4 260 31 222 59 448 149 810
323 124 60 277 129 340 155 63 26 132 56 152 66 66 34 359 126 498 158 275 62
413 76 745 75 317 0 394 -7 681 -59 1005 -186 1901 -744 2424 -1511 94 -138
238 -391 390 -686 206 -398 357 -635 508 -798 88 -94 151 -136 277 -187 81
-31 91 -33 214 -33 151 0 251 17 353 59 452 189 749 648 1038 1606 134 447
246 1133 290 1781 40 597 36 1496 -10 2271 -7 130 -14 177 -36 241 l-26 79 20
40 c25 49 52 150 52 195 0 83 -143 253 -323 383 -193 139 -499 307 -773 424
-96 41 -132 51 -175 51 -62 0 -159 -34 -224 -78 l-40 -27 -255 0 c-140 0 -320
-4 -400 -9 -262 -16 -685 38 -1005 129 -49 14 -119 32 -155 40 -187 42 -617
218 -872 356 -156 85 -405 252 -514 346 -226 193 -275 233 -355 285 -46 30
-94 60 -107 67 -12 7 -34 38 -48 69 -47 108 -112 201 -155 223 -71 36 -417
112 -659 144 -170 23 -554 29 -655 10z m640 -305 c262 -29 519 -101 741 -206
l91 -43 6 -103 c14 -262 148 -519 407 -778 279 -280 615 -479 1069 -634 213
-73 372 -114 566 -148 114 -20 165 -22 410 -22 266 0 286 1 405 26 225 49 386
112 524 208 71 49 169 143 212 204 l20 28 90 -17 c268 -52 582 -184 819 -345
290 -197 505 -446 569 -660 18 -59 29 -216 46 -620 40 -1026 12 -1835 -90
-2550 -73 -508 -157 -875 -300 -1300 -223 -663 -490 -1060 -824 -1225 -110
-54 -183 -74 -297 -82 -108 -7 -179 2 -179 24 0 22 -157 348 -298 618 -208
399 -408 744 -640 1103 -542 840 -953 1264 -1490 1536 -319 161 -684 286
-1035 355 -226 45 -350 55 -586 48 -231 -7 -358 -22 -607 -72 -466 -95 -1221
-360 -1919 -675 -217 -98 -771 -371 -818 -404 l-38 -26 -55 35 c-165 106 -280
274 -341 500 -26 95 -27 112 -27 335 -1 260 10 342 79 605 236 900 740 1850
1554 2930 261 345 850 1071 924 1139 118 106 319 186 542 215 98 12 362 13
470 1z m1042 -400 c54 -44 145 -121 203 -171 253 -219 635 -437 1045 -596 77
-30 141 -56 143 -57 1 -2 -20 -57 -48 -124 -55 -133 -55 -145 -4 -193 51 -47
94 -63 167 -64 92 0 103 14 140 168 18 73 34 117 42 117 7 0 64 -13 126 -30
344 -90 716 -138 1001 -126 84 3 226 8 316 12 103 4 162 3 162 -3 0 -14 -117
-124 -173 -162 -129 -88 -338 -164 -557 -203 -117 -20 -536 -17 -675 5 -259
43 -572 132 -812 233 -630 263 -1087 709 -1177 1146 -18 88 -20 128 -6 128 5
0 53 -36 107 -80z m1488 -900 c36 -19 72 -30 97 -30 33 0 38 -3 34 -17 -3 -10
-14 -56 -26 -103 -12 -47 -28 -91 -37 -97 -40 -31 -150 -1 -191 51 l-21 27 36
82 c19 45 38 90 40 100 3 9 7 17 8 17 2 0 29 -13 60 -30z m-1955 -3385 c225
-26 428 -73 700 -160 388 -125 725 -300 990 -511 116 -93 356 -334 476 -479
313 -378 685 -950 1039 -1595 123 -226 400 -778 393 -785 -3 -3 -32 12 -64 33
-160 104 -366 401 -624 900 -152 295 -296 548 -390 686 -434 636 -1124 1135
-1940 1403 -253 83 -492 137 -790 180 -100 14 -193 17 -465 18 -376 0 -500
-12 -785 -76 -139 -32 -432 -124 -498 -158 -20 -10 -89 -40 -152 -66 -63 -26
-216 -95 -340 -155 -262 -126 -389 -181 -567 -246 -241 -87 -465 -131 -553
-107 -35 10 -32 11 215 135 594 298 1133 525 1705 719 456 155 852 246 1180
272 120 9 358 5 470 -8z"/>
<path d="M3275 8670 c-288 -58 -520 -274 -597 -559 -27 -99 -29 -276 -5 -376
56 -229 239 -441 457 -529 223 -91 473 -70 688 55 80 47 210 180 260 264 262
447 21 1014 -483 1136 -84 20 -242 24 -320 9z"/>
<path d="M8677 6970 c-100 -25 -188 -97 -231 -189 -31 -69 -30 -198 4 -266 31
-64 92 -124 155 -156 42 -20 65 -24 140 -24 79 0 97 4 142 27 248 131 237 475
-18 587 -54 24 -141 33 -192 21z m169 -72 c12 -20 92 -431 87 -445 -8 -21 -28
-16 -232 52 -198 66 -224 78 -219 102 4 17 329 303 345 303 6 0 15 -5 19 -12z"/>
<path d="M8695 6724 c-61 -54 -111 -101 -113 -105 -3 -7 277 -104 282 -98 2 2
-11 70 -28 152 l-31 147 -110 -96z"/>
<path d="M3719 6800 c-277 -50 -517 -195 -680 -409 -64 -85 -141 -241 -176
-356 -25 -83 -27 -104 -27 -275 -1 -161 2 -195 21 -266 103 -376 372 -653 736
-758 487 -141 1011 88 1236 540 80 160 111 294 111 474 0 65 -7 155 -16 200
-76 402 -376 723 -773 827 -77 20 -125 26 -241 29 -80 1 -166 -1 -191 -6z"/>
<path d="M7793 6540 c-122 -49 -206 -171 -206 -300 0 -86 31 -166 87 -224 53
-54 103 -80 182 -96 51 -10 71 -9 125 4 103 27 168 78 217 171 24 44 27 62 27
145 0 106 -15 147 -81 220 -80 89 -238 124 -351 80z"/>
<path d="M9035 6116 c-78 -33 -156 -113 -181 -188 -49 -142 2 -297 124 -378
121 -80 285 -69 392 27 71 64 102 129 108 223 5 93 -20 166 -79 233 -86 99
-241 134 -364 83z"/>
<path d="M8247 5719 c-84 -20 -172 -90 -215 -174 -22 -43 -26 -63 -26 -140 -1
-75 3 -98 23 -137 32 -66 93 -125 159 -156 82 -39 194 -38 273 1 112 54 182
161 183 277 1 85 -17 146 -63 206 -46 62 -103 99 -177 119 -64 17 -100 18
-157 4z"/>
<path d="M6785 5384 c-385 -86 -652 -452 -605 -832 24 -191 87 -320 225 -457
103 -103 168 -144 292 -188 75 -25 107 -31 213 -35 143 -5 242 14 359 68 337
158 512 541 411 900 -37 131 -93 223 -200 331 -82 83 -108 103 -190 143 -52
25 -122 53 -155 62 -88 23 -264 27 -350 8z"/>
</g>
</svg>
